<mxfile host="www.draw.io" modified="2020-01-05T02:44:45.443Z" agent="Mozilla/5.0 (Macintosh; Intel Mac OS X 10_13_6) AppleWebKit/537.36 (KHTML, like Gecko) Chrome/79.0.3945.88 Safari/537.36" etag="sZEIEz0_hlHklELHtU5i" version="12.4.8" type="github" pages="3">
  <diagram id="IsdMuzBa5LZ4HM4UeDoA" name="Page-1">
    <mxGraphModel dx="2368" dy="1131" grid="1" gridSize="10" guides="1" tooltips="1" connect="1" arrows="1" fold="1" page="1" pageScale="1" pageWidth="1169" pageHeight="827" math="0" shadow="0">
      <root>
        <mxCell id="0"/>
        <mxCell id="1" parent="0"/>
        <mxCell id="XGGbo2MG5czj7z2PlUCv-108" value="&lt;b&gt;&lt;font style=&quot;font-size: 16px&quot;&gt;ComplianeDataExchangeService&lt;/font&gt;&lt;/b&gt;" style="rounded=0;whiteSpace=wrap;html=1;fontSize=14;align=left;strokeWidth=2;verticalAlign=bottom;" parent="1" vertex="1">
          <mxGeometry x="-968" y="740" width="928" height="620" as="geometry"/>
        </mxCell>
        <mxCell id="XGGbo2MG5czj7z2PlUCv-52" value="" style="group" parent="1" vertex="1" connectable="0">
          <mxGeometry x="-400" y="1149" width="470" height="230" as="geometry"/>
        </mxCell>
        <mxCell id="XGGbo2MG5czj7z2PlUCv-7" value="Core" style="rounded=0;whiteSpace=wrap;html=1;fontSize=14;align=left;verticalAlign=bottom;fontStyle=1" parent="XGGbo2MG5czj7z2PlUCv-52" vertex="1">
          <mxGeometry x="-540" y="-180" width="877" height="339" as="geometry"/>
        </mxCell>
        <mxCell id="XGGbo2MG5czj7z2PlUCv-53" value="DocumentParser" style="rounded=0;whiteSpace=wrap;html=1;fontSize=14;fontStyle=1" parent="XGGbo2MG5czj7z2PlUCv-52" vertex="1">
          <mxGeometry x="27" y="-71" width="150" height="40" as="geometry"/>
        </mxCell>
        <mxCell id="XGGbo2MG5czj7z2PlUCv-54" value="XML" style="rounded=0;whiteSpace=wrap;html=1;fontSize=14;" parent="XGGbo2MG5czj7z2PlUCv-52" vertex="1">
          <mxGeometry x="27" y="-31" width="75" height="40" as="geometry"/>
        </mxCell>
        <mxCell id="XGGbo2MG5czj7z2PlUCv-55" value="CSV" style="rounded=0;whiteSpace=wrap;html=1;fontSize=14;" parent="XGGbo2MG5czj7z2PlUCv-52" vertex="1">
          <mxGeometry x="102" y="-31" width="75" height="40" as="geometry"/>
        </mxCell>
        <mxCell id="XGGbo2MG5czj7z2PlUCv-56" value="JSON" style="rounded=0;whiteSpace=wrap;html=1;fontSize=14;" parent="XGGbo2MG5czj7z2PlUCv-52" vertex="1">
          <mxGeometry x="27" y="9" width="75" height="40" as="geometry"/>
        </mxCell>
        <mxCell id="XGGbo2MG5czj7z2PlUCv-57" value="..." style="rounded=0;whiteSpace=wrap;html=1;fontSize=14;" parent="XGGbo2MG5czj7z2PlUCv-52" vertex="1">
          <mxGeometry x="102" y="9" width="75" height="40" as="geometry"/>
        </mxCell>
        <mxCell id="XGGbo2MG5czj7z2PlUCv-75" value="Coral Activities" style="rounded=0;whiteSpace=wrap;html=1;fontSize=14;align=center;fontStyle=1" parent="XGGbo2MG5czj7z2PlUCv-52" vertex="1">
          <mxGeometry x="-523" y="70" width="110" height="60" as="geometry"/>
        </mxCell>
        <mxCell id="XGGbo2MG5czj7z2PlUCv-6" value="" style="group;strokeWidth=2;" parent="1" vertex="1" connectable="0">
          <mxGeometry x="-930" y="1393" width="890" height="130" as="geometry"/>
        </mxCell>
        <mxCell id="XGGbo2MG5czj7z2PlUCv-2" value="Workflow engine - HERD" style="rounded=0;whiteSpace=wrap;html=1;align=left;verticalAlign=bottom;fontStyle=1;fontSize=14;strokeWidth=2;" parent="XGGbo2MG5czj7z2PlUCv-6" vertex="1">
          <mxGeometry x="-40" width="930" height="130" as="geometry"/>
        </mxCell>
        <mxCell id="XGGbo2MG5czj7z2PlUCv-3" value="&amp;lt;&amp;lt;Herd Graph&amp;gt;&amp;gt;&lt;br&gt;DataHandlingWF" style="shape=document;whiteSpace=wrap;html=1;boundedLbl=1;" parent="XGGbo2MG5czj7z2PlUCv-6" vertex="1">
          <mxGeometry x="168.92921348314607" y="20" width="111.91011235955055" height="80" as="geometry"/>
        </mxCell>
        <mxCell id="XGGbo2MG5czj7z2PlUCv-4" value="&amp;lt;&amp;lt;Herd Graph&amp;gt;&amp;gt;&lt;br&gt;BatchingReportWF" style="shape=document;whiteSpace=wrap;html=1;boundedLbl=1;" parent="XGGbo2MG5czj7z2PlUCv-6" vertex="1">
          <mxGeometry x="374.0977528089888" y="20" width="111.91011235955055" height="80" as="geometry"/>
        </mxCell>
        <mxCell id="XGGbo2MG5czj7z2PlUCv-5" value="&amp;lt;&amp;lt;Herd Graph&amp;gt;&amp;gt;&lt;br&gt;ResultPollingWF" style="shape=document;whiteSpace=wrap;html=1;boundedLbl=1;" parent="XGGbo2MG5czj7z2PlUCv-6" vertex="1">
          <mxGeometry x="579.2662921348315" y="20" width="111.91011235955055" height="80" as="geometry"/>
        </mxCell>
        <mxCell id="XGGbo2MG5czj7z2PlUCv-113" style="edgeStyle=orthogonalEdgeStyle;rounded=0;orthogonalLoop=1;jettySize=auto;html=1;startArrow=none;startFill=0;endArrow=classic;endFill=1;fontSize=14;" parent="1" source="XGGbo2MG5czj7z2PlUCv-8" target="XGGbo2MG5czj7z2PlUCv-60" edge="1">
          <mxGeometry relative="1" as="geometry"/>
        </mxCell>
        <mxCell id="XGGbo2MG5czj7z2PlUCv-8" value="Plugin - ISA Screening" style="rounded=0;whiteSpace=wrap;html=1;fontSize=14;align=left;verticalAlign=bottom;fontStyle=1" parent="1" vertex="1">
          <mxGeometry x="-940" y="769" width="877" height="171" as="geometry"/>
        </mxCell>
        <mxCell id="XGGbo2MG5czj7z2PlUCv-14" style="edgeStyle=orthogonalEdgeStyle;rounded=0;orthogonalLoop=1;jettySize=auto;html=1;fontSize=14;" parent="1" target="XGGbo2MG5czj7z2PlUCv-4" edge="1">
          <mxGeometry relative="1" as="geometry">
            <mxPoint x="-499.0333333333335" y="1582" as="sourcePoint"/>
          </mxGeometry>
        </mxCell>
        <mxCell id="XGGbo2MG5czj7z2PlUCv-96" value="on schedule" style="text;html=1;align=center;verticalAlign=middle;resizable=0;points=[];;labelBackgroundColor=#ffffff;fontSize=14;" parent="XGGbo2MG5czj7z2PlUCv-14" vertex="1" connectable="0">
          <mxGeometry x="0.08" y="-2" relative="1" as="geometry">
            <mxPoint as="offset"/>
          </mxGeometry>
        </mxCell>
        <mxCell id="XGGbo2MG5czj7z2PlUCv-16" style="edgeStyle=orthogonalEdgeStyle;rounded=0;orthogonalLoop=1;jettySize=auto;html=1;fontSize=14;" parent="1" target="XGGbo2MG5czj7z2PlUCv-5" edge="1">
          <mxGeometry relative="1" as="geometry">
            <mxPoint x="-295.0333333333335" y="1582" as="sourcePoint"/>
          </mxGeometry>
        </mxCell>
        <mxCell id="XGGbo2MG5czj7z2PlUCv-97" value="on schedule" style="text;html=1;align=center;verticalAlign=middle;resizable=0;points=[];;labelBackgroundColor=#ffffff;fontSize=14;" parent="XGGbo2MG5czj7z2PlUCv-16" vertex="1" connectable="0">
          <mxGeometry x="0.12" y="-2" relative="1" as="geometry">
            <mxPoint as="offset"/>
          </mxGeometry>
        </mxCell>
        <mxCell id="XGGbo2MG5czj7z2PlUCv-18" style="edgeStyle=orthogonalEdgeStyle;rounded=0;orthogonalLoop=1;jettySize=auto;html=1;entryX=0.5;entryY=0.9;entryDx=0;entryDy=0;entryPerimeter=0;fontSize=14;" parent="1" target="XGGbo2MG5czj7z2PlUCv-3" edge="1">
          <mxGeometry relative="1" as="geometry">
            <mxPoint x="-704.3666666666666" y="1582" as="sourcePoint"/>
          </mxGeometry>
        </mxCell>
        <mxCell id="XGGbo2MG5czj7z2PlUCv-95" value="on demand" style="text;html=1;align=center;verticalAlign=middle;resizable=0;points=[];;labelBackgroundColor=#ffffff;fontSize=14;" parent="XGGbo2MG5czj7z2PlUCv-18" vertex="1" connectable="0">
          <mxGeometry x="0.0185" relative="1" as="geometry">
            <mxPoint as="offset"/>
          </mxGeometry>
        </mxCell>
        <mxCell id="XGGbo2MG5czj7z2PlUCv-22" value="Data Model" style="rounded=1;whiteSpace=wrap;html=1;fontSize=14;" parent="1" vertex="1">
          <mxGeometry x="-923" y="794" width="120" height="35" as="geometry"/>
        </mxCell>
        <mxCell id="XGGbo2MG5czj7z2PlUCv-24" value="Render Template" style="rounded=1;whiteSpace=wrap;html=1;fontSize=14;" parent="1" vertex="1">
          <mxGeometry x="-683" y="794" width="120" height="35" as="geometry"/>
        </mxCell>
        <mxCell id="XGGbo2MG5czj7z2PlUCv-25" value="Batching selector" style="rounded=1;whiteSpace=wrap;html=1;fontSize=14;" parent="1" vertex="1">
          <mxGeometry x="-683" y="838" width="120" height="35" as="geometry"/>
        </mxCell>
        <mxCell id="XGGbo2MG5czj7z2PlUCv-26" value="Transmission Handler" style="rounded=1;whiteSpace=wrap;html=1;fontSize=14;" parent="1" vertex="1">
          <mxGeometry x="-523" y="838" width="120" height="35" as="geometry"/>
        </mxCell>
        <mxCell id="XGGbo2MG5czj7z2PlUCv-28" value="Data Aggregate&lt;br&gt;configuration" style="rounded=1;whiteSpace=wrap;html=1;fontSize=14;" parent="1" vertex="1">
          <mxGeometry x="-923" y="838" width="120" height="35" as="geometry"/>
        </mxCell>
        <mxCell id="XGGbo2MG5czj7z2PlUCv-36" value="" style="group" parent="1" vertex="1" connectable="0">
          <mxGeometry x="-923" y="1057" width="200" height="140" as="geometry"/>
        </mxCell>
        <mxCell id="XGGbo2MG5czj7z2PlUCv-29" value="DataAggregator" style="rounded=0;whiteSpace=wrap;html=1;fontSize=14;fontStyle=1" parent="XGGbo2MG5czj7z2PlUCv-36" vertex="1">
          <mxGeometry y="20" width="200" height="40" as="geometry"/>
        </mxCell>
        <mxCell id="XGGbo2MG5czj7z2PlUCv-30" value="Coral" style="rounded=0;whiteSpace=wrap;html=1;fontSize=14;" parent="XGGbo2MG5czj7z2PlUCv-36" vertex="1">
          <mxGeometry y="60" width="60" height="40" as="geometry"/>
        </mxCell>
        <mxCell id="XGGbo2MG5czj7z2PlUCv-31" value="DynamoDB" style="rounded=0;whiteSpace=wrap;html=1;fontSize=14;" parent="XGGbo2MG5czj7z2PlUCv-36" vertex="1">
          <mxGeometry x="60" y="60" width="80" height="40" as="geometry"/>
        </mxCell>
        <mxCell id="XGGbo2MG5czj7z2PlUCv-32" value="Http" style="rounded=0;whiteSpace=wrap;html=1;fontSize=14;" parent="XGGbo2MG5czj7z2PlUCv-36" vertex="1">
          <mxGeometry x="140" y="60" width="60" height="40" as="geometry"/>
        </mxCell>
        <mxCell id="XGGbo2MG5czj7z2PlUCv-33" value="Sable" style="rounded=0;whiteSpace=wrap;html=1;fontSize=14;" parent="XGGbo2MG5czj7z2PlUCv-36" vertex="1">
          <mxGeometry y="100" width="60" height="40" as="geometry"/>
        </mxCell>
        <mxCell id="XGGbo2MG5czj7z2PlUCv-34" value="Datapath" style="rounded=0;whiteSpace=wrap;html=1;fontSize=14;" parent="XGGbo2MG5czj7z2PlUCv-36" vertex="1">
          <mxGeometry x="60" y="100" width="80" height="40" as="geometry"/>
        </mxCell>
        <mxCell id="XGGbo2MG5czj7z2PlUCv-35" value="..." style="rounded=0;whiteSpace=wrap;html=1;fontSize=14;" parent="XGGbo2MG5czj7z2PlUCv-36" vertex="1">
          <mxGeometry x="140" y="100" width="60" height="40" as="geometry"/>
        </mxCell>
        <mxCell id="XGGbo2MG5czj7z2PlUCv-50" value="" style="group" parent="1" vertex="1" connectable="0">
          <mxGeometry x="-538" y="1078" width="160" height="120" as="geometry"/>
        </mxCell>
        <mxCell id="XGGbo2MG5czj7z2PlUCv-44" value="&lt;b&gt;TransmissionProcessor&lt;/b&gt;" style="rounded=0;whiteSpace=wrap;html=1;fontSize=14;" parent="XGGbo2MG5czj7z2PlUCv-50" vertex="1">
          <mxGeometry width="160" height="40" as="geometry"/>
        </mxCell>
        <mxCell id="XGGbo2MG5czj7z2PlUCv-45" value="SEDI" style="rounded=0;whiteSpace=wrap;html=1;fontSize=14;" parent="XGGbo2MG5czj7z2PlUCv-50" vertex="1">
          <mxGeometry y="40" width="78.99999999999999" height="40" as="geometry"/>
        </mxCell>
        <mxCell id="XGGbo2MG5czj7z2PlUCv-46" value="Http" style="rounded=0;whiteSpace=wrap;html=1;fontSize=14;" parent="XGGbo2MG5czj7z2PlUCv-50" vertex="1">
          <mxGeometry x="78.99999999999999" y="40" width="80" height="40" as="geometry"/>
        </mxCell>
        <mxCell id="XGGbo2MG5czj7z2PlUCv-47" value="SFTP" style="rounded=0;whiteSpace=wrap;html=1;fontSize=14;" parent="XGGbo2MG5czj7z2PlUCv-50" vertex="1">
          <mxGeometry y="80" width="78.99999999999999" height="40" as="geometry"/>
        </mxCell>
        <mxCell id="XGGbo2MG5czj7z2PlUCv-48" value="..." style="rounded=0;whiteSpace=wrap;html=1;fontSize=14;" parent="XGGbo2MG5czj7z2PlUCv-50" vertex="1">
          <mxGeometry x="78.99999999999999" y="80" width="81" height="40" as="geometry"/>
        </mxCell>
        <mxCell id="XGGbo2MG5czj7z2PlUCv-51" value="" style="group" parent="1" vertex="1" connectable="0">
          <mxGeometry x="-703" y="1077" width="150" height="120" as="geometry"/>
        </mxCell>
        <mxCell id="XGGbo2MG5czj7z2PlUCv-39" value="DocumentGenerator" style="rounded=0;whiteSpace=wrap;html=1;fontSize=14;fontStyle=1" parent="XGGbo2MG5czj7z2PlUCv-51" vertex="1">
          <mxGeometry width="150" height="40" as="geometry"/>
        </mxCell>
        <mxCell id="XGGbo2MG5czj7z2PlUCv-40" value="XML" style="rounded=0;whiteSpace=wrap;html=1;fontSize=14;" parent="XGGbo2MG5czj7z2PlUCv-51" vertex="1">
          <mxGeometry y="40" width="75" height="40" as="geometry"/>
        </mxCell>
        <mxCell id="XGGbo2MG5czj7z2PlUCv-41" value="CSV" style="rounded=0;whiteSpace=wrap;html=1;fontSize=14;" parent="XGGbo2MG5czj7z2PlUCv-51" vertex="1">
          <mxGeometry x="75" y="40" width="75" height="40" as="geometry"/>
        </mxCell>
        <mxCell id="XGGbo2MG5czj7z2PlUCv-42" value="JSON" style="rounded=0;whiteSpace=wrap;html=1;fontSize=14;" parent="XGGbo2MG5czj7z2PlUCv-51" vertex="1">
          <mxGeometry y="80" width="75" height="40" as="geometry"/>
        </mxCell>
        <mxCell id="XGGbo2MG5czj7z2PlUCv-43" value="..." style="rounded=0;whiteSpace=wrap;html=1;fontSize=14;" parent="XGGbo2MG5czj7z2PlUCv-51" vertex="1">
          <mxGeometry x="75" y="80" width="75" height="40" as="geometry"/>
        </mxCell>
        <mxCell id="XGGbo2MG5czj7z2PlUCv-61" value="Data Model" style="rounded=1;whiteSpace=wrap;html=1;fontSize=14;" parent="1" vertex="1">
          <mxGeometry x="-363" y="844" width="120" height="35" as="geometry"/>
        </mxCell>
        <mxCell id="XGGbo2MG5czj7z2PlUCv-62" value="Metrics" style="rounded=0;whiteSpace=wrap;html=1;fontSize=14;align=center;horizontal=0;fontStyle=1" parent="1" vertex="1">
          <mxGeometry x="-213" y="990" width="50" height="209" as="geometry"/>
        </mxCell>
        <mxCell id="XGGbo2MG5czj7z2PlUCv-65" value="Encrypt/Decrypt" style="rounded=0;whiteSpace=wrap;html=1;fontSize=14;align=center;horizontal=0;fontStyle=1" parent="1" vertex="1">
          <mxGeometry x="-153" y="990" width="50" height="209" as="geometry"/>
        </mxCell>
        <mxCell id="XGGbo2MG5czj7z2PlUCv-70" style="edgeStyle=orthogonalEdgeStyle;rounded=0;orthogonalLoop=1;jettySize=auto;html=1;entryX=1;entryY=0.25;entryDx=0;entryDy=0;fontSize=14;exitX=0;exitY=0.25;exitDx=0;exitDy=0;" parent="1" source="XGGbo2MG5czj7z2PlUCv-33" target="XGGbo2MG5czj7z2PlUCv-69" edge="1">
          <mxGeometry relative="1" as="geometry">
            <mxPoint x="-950" y="1166" as="sourcePoint"/>
          </mxGeometry>
        </mxCell>
        <mxCell id="XGGbo2MG5czj7z2PlUCv-80" style="edgeStyle=orthogonalEdgeStyle;rounded=0;orthogonalLoop=1;jettySize=auto;html=1;fontSize=14;entryX=0.136;entryY=0.989;entryDx=0;entryDy=0;entryPerimeter=0;" parent="1" source="XGGbo2MG5czj7z2PlUCv-3" target="XGGbo2MG5czj7z2PlUCv-74" edge="1">
          <mxGeometry relative="1" as="geometry">
            <mxPoint x="-827" y="1355" as="targetPoint"/>
          </mxGeometry>
        </mxCell>
        <mxCell id="XGGbo2MG5czj7z2PlUCv-81" style="edgeStyle=orthogonalEdgeStyle;rounded=0;orthogonalLoop=1;jettySize=auto;html=1;fontSize=14;entryX=0.429;entryY=1.056;entryDx=0;entryDy=0;entryPerimeter=0;" parent="1" source="XGGbo2MG5czj7z2PlUCv-4" target="XGGbo2MG5czj7z2PlUCv-74" edge="1">
          <mxGeometry relative="1" as="geometry"/>
        </mxCell>
        <mxCell id="XGGbo2MG5czj7z2PlUCv-82" style="edgeStyle=orthogonalEdgeStyle;rounded=0;orthogonalLoop=1;jettySize=auto;html=1;entryX=0.722;entryY=0.989;entryDx=0;entryDy=0;entryPerimeter=0;fontSize=14;" parent="1" source="XGGbo2MG5czj7z2PlUCv-5" target="XGGbo2MG5czj7z2PlUCv-74" edge="1">
          <mxGeometry relative="1" as="geometry"/>
        </mxCell>
        <mxCell id="XGGbo2MG5czj7z2PlUCv-93" style="edgeStyle=orthogonalEdgeStyle;rounded=0;orthogonalLoop=1;jettySize=auto;html=1;entryX=0;entryY=0.5;entryDx=0;entryDy=0;fontSize=14;startArrow=classic;startFill=1;" parent="1" source="XGGbo2MG5czj7z2PlUCv-90" target="XGGbo2MG5czj7z2PlUCv-91" edge="1">
          <mxGeometry relative="1" as="geometry"/>
        </mxCell>
        <mxCell id="XGGbo2MG5czj7z2PlUCv-90" value="&lt;span style=&quot;white-space: normal&quot;&gt;Data Exchange Channel&lt;/span&gt;" style="shape=parallelogram;perimeter=parallelogramPerimeter;whiteSpace=wrap;html=1;fontSize=14;align=center;" parent="1" vertex="1">
          <mxGeometry x="-378" y="893" width="150" height="35" as="geometry"/>
        </mxCell>
        <mxCell id="XGGbo2MG5czj7z2PlUCv-91" value="&amp;lt;&amp;lt;Third Party&amp;gt;&amp;gt;&lt;br&gt;Partner services" style="rounded=0;whiteSpace=wrap;html=1;fontSize=14;align=center;" parent="1" vertex="1">
          <mxGeometry x="47" y="880" width="125" height="60" as="geometry"/>
        </mxCell>
        <mxCell id="XGGbo2MG5czj7z2PlUCv-103" value="" style="group" parent="1" vertex="1" connectable="0">
          <mxGeometry x="-1149" y="1071" width="150" height="152" as="geometry"/>
        </mxCell>
        <mxCell id="XGGbo2MG5czj7z2PlUCv-77" value="" style="group" parent="XGGbo2MG5czj7z2PlUCv-103" vertex="1" connectable="0">
          <mxGeometry x="20" y="24" width="110" height="128" as="geometry"/>
        </mxCell>
        <mxCell id="XGGbo2MG5czj7z2PlUCv-67" value="RGS/ODS" style="rounded=0;whiteSpace=wrap;html=1;fontSize=14;align=center;" parent="XGGbo2MG5czj7z2PlUCv-77" vertex="1">
          <mxGeometry width="110" height="32" as="geometry"/>
        </mxCell>
        <mxCell id="XGGbo2MG5czj7z2PlUCv-68" value="PARIS" style="rounded=0;whiteSpace=wrap;html=1;fontSize=14;align=center;" parent="XGGbo2MG5czj7z2PlUCv-77" vertex="1">
          <mxGeometry y="32" width="110" height="32" as="geometry"/>
        </mxCell>
        <mxCell id="XGGbo2MG5czj7z2PlUCv-69" value="DynamoDB" style="rounded=0;whiteSpace=wrap;html=1;fontSize=14;align=center;" parent="XGGbo2MG5czj7z2PlUCv-77" vertex="1">
          <mxGeometry y="64" width="110" height="32" as="geometry"/>
        </mxCell>
        <mxCell id="XGGbo2MG5czj7z2PlUCv-76" value="..." style="rounded=0;whiteSpace=wrap;html=1;fontSize=14;align=center;" parent="XGGbo2MG5czj7z2PlUCv-77" vertex="1">
          <mxGeometry y="96" width="110" height="32" as="geometry"/>
        </mxCell>
        <mxCell id="XGGbo2MG5czj7z2PlUCv-94" value="&amp;lt;&amp;lt;Internal services&amp;gt;&amp;gt;" style="text;html=1;align=center;verticalAlign=middle;resizable=0;points=[];;autosize=1;fontSize=14;" parent="XGGbo2MG5czj7z2PlUCv-103" vertex="1">
          <mxGeometry width="150" height="20" as="geometry"/>
        </mxCell>
        <mxCell id="XGGbo2MG5czj7z2PlUCv-105" style="edgeStyle=orthogonalEdgeStyle;rounded=0;orthogonalLoop=1;jettySize=auto;html=1;entryX=0;entryY=0.5;entryDx=0;entryDy=0;startArrow=none;startFill=0;fontSize=14;endArrow=classic;endFill=1;" parent="1" source="XGGbo2MG5czj7z2PlUCv-104" target="XGGbo2MG5czj7z2PlUCv-75" edge="1">
          <mxGeometry relative="1" as="geometry"/>
        </mxCell>
        <mxCell id="XGGbo2MG5czj7z2PlUCv-104" value="OpsTools" style="rounded=0;whiteSpace=wrap;html=1;fontSize=14;" parent="1" vertex="1">
          <mxGeometry x="-1129" y="1229" width="110" height="40" as="geometry"/>
        </mxCell>
        <mxCell id="XGGbo2MG5czj7z2PlUCv-74" value="Herd SIL Activities" style="rounded=0;whiteSpace=wrap;html=1;fontSize=14;align=center;fontStyle=1" parent="1" vertex="1">
          <mxGeometry x="-800" y="1219" width="700" height="60" as="geometry"/>
        </mxCell>
        <mxCell id="XGGbo2MG5czj7z2PlUCv-99" value="DynamoDB: process data" style="shape=cylinder;whiteSpace=wrap;html=1;boundedLbl=1;backgroundOutline=1;fontSize=14;align=center;verticalAlign=top;fontStyle=1" parent="1" vertex="1">
          <mxGeometry x="-920" y="990" width="687" height="60" as="geometry"/>
        </mxCell>
        <mxCell id="XGGbo2MG5czj7z2PlUCv-112" value="" style="group" parent="1" vertex="1" connectable="0">
          <mxGeometry x="-1159" y="741" width="170" height="226" as="geometry"/>
        </mxCell>
        <mxCell id="XGGbo2MG5czj7z2PlUCv-60" value="&lt;b&gt;BusinessData&lt;/b&gt;" style="shape=cylinder;whiteSpace=wrap;html=1;boundedLbl=1;backgroundOutline=1;fontSize=14;align=center;verticalAlign=top;" parent="XGGbo2MG5czj7z2PlUCv-112" vertex="1">
          <mxGeometry x="20" width="130" height="226" as="geometry"/>
        </mxCell>
        <mxCell id="XGGbo2MG5czj7z2PlUCv-38" value="AggregatedData" style="shape=hexagon;perimeter=hexagonPerimeter2;whiteSpace=wrap;html=1;fontSize=14;" parent="XGGbo2MG5czj7z2PlUCv-112" vertex="1">
          <mxGeometry x="25" y="79" width="120" height="40" as="geometry"/>
        </mxCell>
        <mxCell id="XGGbo2MG5czj7z2PlUCv-49" value="Outbound&lt;br&gt;Document" style="shape=hexagon;perimeter=hexagonPerimeter2;whiteSpace=wrap;html=1;fontSize=14;" parent="XGGbo2MG5czj7z2PlUCv-112" vertex="1">
          <mxGeometry x="25" y="126" width="120" height="40" as="geometry"/>
        </mxCell>
        <mxCell id="XGGbo2MG5czj7z2PlUCv-58" value="Inbound&lt;br&gt;Document" style="shape=hexagon;perimeter=hexagonPerimeter2;whiteSpace=wrap;html=1;fontSize=14;" parent="XGGbo2MG5czj7z2PlUCv-112" vertex="1">
          <mxGeometry x="25" y="176" width="120" height="40" as="geometry"/>
        </mxCell>
        <mxCell id="XGGbo2MG5czj7z2PlUCv-115" value="Data Transformer" style="rounded=1;whiteSpace=wrap;html=1;fontSize=14;" parent="1" vertex="1">
          <mxGeometry x="-922" y="880" width="120" height="35" as="geometry"/>
        </mxCell>
        <mxCell id="XGGbo2MG5czj7z2PlUCv-116" value="FeedbackHandler" style="rounded=1;whiteSpace=wrap;html=1;fontSize=14;" parent="1" vertex="1">
          <mxGeometry x="-363" y="794" width="120" height="35" as="geometry"/>
        </mxCell>
      </root>
    </mxGraphModel>
  </diagram>
  <diagram id="1cdCQS9nq3WN6K64w1Pp" name="Page-2">
    <mxGraphModel dx="2141" dy="525" grid="1" gridSize="10" guides="1" tooltips="1" connect="1" arrows="1" fold="1" page="1" pageScale="1" pageWidth="1169" pageHeight="827" math="0" shadow="0">
      <root>
        <mxCell id="VPEJ1JaMgokHMF3FO-Ii-0"/>
        <mxCell id="VPEJ1JaMgokHMF3FO-Ii-1" parent="VPEJ1JaMgokHMF3FO-Ii-0"/>
        <mxCell id="VPEJ1JaMgokHMF3FO-Ii-2" value="&lt;b&gt;&lt;font style=&quot;font-size: 16px&quot;&gt;ComplianeDataExchangeService&lt;/font&gt;&lt;/b&gt;" style="rounded=0;whiteSpace=wrap;html=1;fontSize=14;align=left;strokeWidth=2;verticalAlign=bottom;" vertex="1" parent="VPEJ1JaMgokHMF3FO-Ii-1">
          <mxGeometry x="-799" y="80" width="928" height="620" as="geometry"/>
        </mxCell>
        <mxCell id="VPEJ1JaMgokHMF3FO-Ii-4" value="Core" style="rounded=0;whiteSpace=wrap;html=1;fontSize=14;align=left;verticalAlign=bottom;fontStyle=1" vertex="1" parent="VPEJ1JaMgokHMF3FO-Ii-1">
          <mxGeometry x="-771" y="309" width="877" height="339" as="geometry"/>
        </mxCell>
        <mxCell id="VPEJ1JaMgokHMF3FO-Ii-11" value="" style="group;strokeWidth=2;" vertex="1" connectable="0" parent="VPEJ1JaMgokHMF3FO-Ii-1">
          <mxGeometry x="-761" y="733" width="890" height="130" as="geometry"/>
        </mxCell>
        <mxCell id="VPEJ1JaMgokHMF3FO-Ii-12" value="Workflow engine - HERD" style="rounded=0;whiteSpace=wrap;html=1;align=left;verticalAlign=bottom;fontStyle=1;fontSize=14;strokeWidth=2;" vertex="1" parent="VPEJ1JaMgokHMF3FO-Ii-11">
          <mxGeometry x="-40" width="930" height="130" as="geometry"/>
        </mxCell>
        <mxCell id="VPEJ1JaMgokHMF3FO-Ii-13" value="&amp;lt;&amp;lt;Herd Graph&amp;gt;&amp;gt;&lt;br&gt;DataHandlingWF" style="shape=document;whiteSpace=wrap;html=1;boundedLbl=1;" vertex="1" parent="VPEJ1JaMgokHMF3FO-Ii-11">
          <mxGeometry x="168.92921348314607" y="20" width="111.91011235955055" height="80" as="geometry"/>
        </mxCell>
        <mxCell id="VPEJ1JaMgokHMF3FO-Ii-14" value="&amp;lt;&amp;lt;Herd Graph&amp;gt;&amp;gt;&lt;br&gt;BatchingReportWF" style="shape=document;whiteSpace=wrap;html=1;boundedLbl=1;" vertex="1" parent="VPEJ1JaMgokHMF3FO-Ii-11">
          <mxGeometry x="374.0977528089888" y="20" width="111.91011235955055" height="80" as="geometry"/>
        </mxCell>
        <mxCell id="VPEJ1JaMgokHMF3FO-Ii-15" value="&amp;lt;&amp;lt;Herd Graph&amp;gt;&amp;gt;&lt;br&gt;ResultPollingWF" style="shape=document;whiteSpace=wrap;html=1;boundedLbl=1;" vertex="1" parent="VPEJ1JaMgokHMF3FO-Ii-11">
          <mxGeometry x="579.2662921348315" y="20" width="111.91011235955055" height="80" as="geometry"/>
        </mxCell>
        <mxCell id="VPEJ1JaMgokHMF3FO-Ii-16" style="edgeStyle=orthogonalEdgeStyle;rounded=0;orthogonalLoop=1;jettySize=auto;html=1;startArrow=none;startFill=0;endArrow=classic;endFill=1;fontSize=14;" edge="1" parent="VPEJ1JaMgokHMF3FO-Ii-1" source="VPEJ1JaMgokHMF3FO-Ii-17" target="VPEJ1JaMgokHMF3FO-Ii-71">
          <mxGeometry relative="1" as="geometry"/>
        </mxCell>
        <mxCell id="VPEJ1JaMgokHMF3FO-Ii-17" value="Plugin - ISA Screening" style="rounded=0;whiteSpace=wrap;html=1;fontSize=14;align=left;verticalAlign=bottom;fontStyle=1" vertex="1" parent="VPEJ1JaMgokHMF3FO-Ii-1">
          <mxGeometry x="-771" y="109" width="877" height="171" as="geometry"/>
        </mxCell>
        <mxCell id="VPEJ1JaMgokHMF3FO-Ii-18" style="edgeStyle=orthogonalEdgeStyle;rounded=0;orthogonalLoop=1;jettySize=auto;html=1;fontSize=14;" edge="1" parent="VPEJ1JaMgokHMF3FO-Ii-1" target="VPEJ1JaMgokHMF3FO-Ii-14">
          <mxGeometry relative="1" as="geometry">
            <mxPoint x="-330.03333333333353" y="922" as="sourcePoint"/>
          </mxGeometry>
        </mxCell>
        <mxCell id="VPEJ1JaMgokHMF3FO-Ii-19" value="on schedule" style="text;html=1;align=center;verticalAlign=middle;resizable=0;points=[];;labelBackgroundColor=#ffffff;fontSize=14;" vertex="1" connectable="0" parent="VPEJ1JaMgokHMF3FO-Ii-18">
          <mxGeometry x="0.08" y="-2" relative="1" as="geometry">
            <mxPoint as="offset"/>
          </mxGeometry>
        </mxCell>
        <mxCell id="VPEJ1JaMgokHMF3FO-Ii-20" style="edgeStyle=orthogonalEdgeStyle;rounded=0;orthogonalLoop=1;jettySize=auto;html=1;fontSize=14;" edge="1" parent="VPEJ1JaMgokHMF3FO-Ii-1" target="VPEJ1JaMgokHMF3FO-Ii-15">
          <mxGeometry relative="1" as="geometry">
            <mxPoint x="-126.0333333333333" y="922" as="sourcePoint"/>
          </mxGeometry>
        </mxCell>
        <mxCell id="VPEJ1JaMgokHMF3FO-Ii-21" value="on schedule" style="text;html=1;align=center;verticalAlign=middle;resizable=0;points=[];;labelBackgroundColor=#ffffff;fontSize=14;" vertex="1" connectable="0" parent="VPEJ1JaMgokHMF3FO-Ii-20">
          <mxGeometry x="0.12" y="-2" relative="1" as="geometry">
            <mxPoint as="offset"/>
          </mxGeometry>
        </mxCell>
        <mxCell id="VPEJ1JaMgokHMF3FO-Ii-22" style="edgeStyle=orthogonalEdgeStyle;rounded=0;orthogonalLoop=1;jettySize=auto;html=1;entryX=0.5;entryY=0.9;entryDx=0;entryDy=0;entryPerimeter=0;fontSize=14;" edge="1" parent="VPEJ1JaMgokHMF3FO-Ii-1" target="VPEJ1JaMgokHMF3FO-Ii-13">
          <mxGeometry relative="1" as="geometry">
            <mxPoint x="-535.3666666666666" y="922" as="sourcePoint"/>
          </mxGeometry>
        </mxCell>
        <mxCell id="VPEJ1JaMgokHMF3FO-Ii-23" value="on demand" style="text;html=1;align=center;verticalAlign=middle;resizable=0;points=[];;labelBackgroundColor=#ffffff;fontSize=14;" vertex="1" connectable="0" parent="VPEJ1JaMgokHMF3FO-Ii-22">
          <mxGeometry x="0.0185" relative="1" as="geometry">
            <mxPoint as="offset"/>
          </mxGeometry>
        </mxCell>
        <mxCell id="VPEJ1JaMgokHMF3FO-Ii-24" value="Data Model" style="rounded=1;whiteSpace=wrap;html=1;fontSize=14;" vertex="1" parent="VPEJ1JaMgokHMF3FO-Ii-1">
          <mxGeometry x="-754" y="134" width="120" height="35" as="geometry"/>
        </mxCell>
        <mxCell id="VPEJ1JaMgokHMF3FO-Ii-25" value="Render Template" style="rounded=1;whiteSpace=wrap;html=1;fontSize=14;" vertex="1" parent="VPEJ1JaMgokHMF3FO-Ii-1">
          <mxGeometry x="-514" y="134" width="120" height="35" as="geometry"/>
        </mxCell>
        <mxCell id="VPEJ1JaMgokHMF3FO-Ii-26" value="Batching selector" style="rounded=1;whiteSpace=wrap;html=1;fontSize=14;" vertex="1" parent="VPEJ1JaMgokHMF3FO-Ii-1">
          <mxGeometry x="-514" y="178" width="120" height="35" as="geometry"/>
        </mxCell>
        <mxCell id="VPEJ1JaMgokHMF3FO-Ii-27" value="Transmission Handler" style="rounded=1;whiteSpace=wrap;html=1;fontSize=14;" vertex="1" parent="VPEJ1JaMgokHMF3FO-Ii-1">
          <mxGeometry x="-354" y="178" width="120" height="35" as="geometry"/>
        </mxCell>
        <mxCell id="VPEJ1JaMgokHMF3FO-Ii-28" value="Data Aggregate&lt;br&gt;configuration" style="rounded=1;whiteSpace=wrap;html=1;fontSize=14;" vertex="1" parent="VPEJ1JaMgokHMF3FO-Ii-1">
          <mxGeometry x="-754" y="178" width="120" height="35" as="geometry"/>
        </mxCell>
        <mxCell id="VPEJ1JaMgokHMF3FO-Ii-49" value="Data Model" style="rounded=1;whiteSpace=wrap;html=1;fontSize=14;" vertex="1" parent="VPEJ1JaMgokHMF3FO-Ii-1">
          <mxGeometry x="-194" y="184" width="120" height="35" as="geometry"/>
        </mxCell>
        <mxCell id="VPEJ1JaMgokHMF3FO-Ii-50" value="Metrics" style="rounded=0;whiteSpace=wrap;html=1;fontSize=14;align=center;horizontal=0;fontStyle=1" vertex="1" parent="VPEJ1JaMgokHMF3FO-Ii-1">
          <mxGeometry x="-44" y="330" width="50" height="209" as="geometry"/>
        </mxCell>
        <mxCell id="VPEJ1JaMgokHMF3FO-Ii-51" value="Encrypt/Decrypt" style="rounded=0;whiteSpace=wrap;html=1;fontSize=14;align=center;horizontal=0;fontStyle=1" vertex="1" parent="VPEJ1JaMgokHMF3FO-Ii-1">
          <mxGeometry x="16" y="330" width="50" height="209" as="geometry"/>
        </mxCell>
        <mxCell id="VPEJ1JaMgokHMF3FO-Ii-52" style="edgeStyle=orthogonalEdgeStyle;rounded=0;orthogonalLoop=1;jettySize=auto;html=1;entryX=1;entryY=0.25;entryDx=0;entryDy=0;fontSize=14;exitX=0;exitY=0.25;exitDx=0;exitDy=0;" edge="1" parent="VPEJ1JaMgokHMF3FO-Ii-1" target="VPEJ1JaMgokHMF3FO-Ii-63">
          <mxGeometry relative="1" as="geometry">
            <mxPoint x="-754" y="507" as="sourcePoint"/>
          </mxGeometry>
        </mxCell>
        <mxCell id="VPEJ1JaMgokHMF3FO-Ii-53" style="edgeStyle=orthogonalEdgeStyle;rounded=0;orthogonalLoop=1;jettySize=auto;html=1;fontSize=14;entryX=0.136;entryY=0.989;entryDx=0;entryDy=0;entryPerimeter=0;" edge="1" parent="VPEJ1JaMgokHMF3FO-Ii-1" source="VPEJ1JaMgokHMF3FO-Ii-13" target="VPEJ1JaMgokHMF3FO-Ii-68">
          <mxGeometry relative="1" as="geometry">
            <mxPoint x="-658" y="695" as="targetPoint"/>
          </mxGeometry>
        </mxCell>
        <mxCell id="VPEJ1JaMgokHMF3FO-Ii-54" style="edgeStyle=orthogonalEdgeStyle;rounded=0;orthogonalLoop=1;jettySize=auto;html=1;fontSize=14;entryX=0.429;entryY=1.056;entryDx=0;entryDy=0;entryPerimeter=0;" edge="1" parent="VPEJ1JaMgokHMF3FO-Ii-1" source="VPEJ1JaMgokHMF3FO-Ii-14" target="VPEJ1JaMgokHMF3FO-Ii-68">
          <mxGeometry relative="1" as="geometry"/>
        </mxCell>
        <mxCell id="VPEJ1JaMgokHMF3FO-Ii-55" style="edgeStyle=orthogonalEdgeStyle;rounded=0;orthogonalLoop=1;jettySize=auto;html=1;entryX=0.722;entryY=0.989;entryDx=0;entryDy=0;entryPerimeter=0;fontSize=14;" edge="1" parent="VPEJ1JaMgokHMF3FO-Ii-1" source="VPEJ1JaMgokHMF3FO-Ii-15" target="VPEJ1JaMgokHMF3FO-Ii-68">
          <mxGeometry relative="1" as="geometry"/>
        </mxCell>
        <mxCell id="VPEJ1JaMgokHMF3FO-Ii-56" style="edgeStyle=orthogonalEdgeStyle;rounded=0;orthogonalLoop=1;jettySize=auto;html=1;entryX=0;entryY=0.5;entryDx=0;entryDy=0;fontSize=14;startArrow=classic;startFill=1;" edge="1" parent="VPEJ1JaMgokHMF3FO-Ii-1" source="VPEJ1JaMgokHMF3FO-Ii-57" target="VPEJ1JaMgokHMF3FO-Ii-58">
          <mxGeometry relative="1" as="geometry"/>
        </mxCell>
        <mxCell id="VPEJ1JaMgokHMF3FO-Ii-57" value="&lt;span style=&quot;white-space: normal&quot;&gt;Data Exchange Channel&lt;/span&gt;" style="shape=parallelogram;perimeter=parallelogramPerimeter;whiteSpace=wrap;html=1;fontSize=14;align=center;" vertex="1" parent="VPEJ1JaMgokHMF3FO-Ii-1">
          <mxGeometry x="-209" y="233" width="150" height="35" as="geometry"/>
        </mxCell>
        <mxCell id="VPEJ1JaMgokHMF3FO-Ii-58" value="&amp;lt;&amp;lt;Third Party&amp;gt;&amp;gt;&lt;br&gt;Partner services" style="rounded=0;whiteSpace=wrap;html=1;fontSize=14;align=center;" vertex="1" parent="VPEJ1JaMgokHMF3FO-Ii-1">
          <mxGeometry x="216" y="220" width="125" height="60" as="geometry"/>
        </mxCell>
        <mxCell id="VPEJ1JaMgokHMF3FO-Ii-59" value="" style="group" vertex="1" connectable="0" parent="VPEJ1JaMgokHMF3FO-Ii-1">
          <mxGeometry x="-980" y="411" width="190" height="152" as="geometry"/>
        </mxCell>
        <mxCell id="VPEJ1JaMgokHMF3FO-Ii-60" value="" style="group" vertex="1" connectable="0" parent="VPEJ1JaMgokHMF3FO-Ii-59">
          <mxGeometry x="20" y="24" width="110" height="128" as="geometry"/>
        </mxCell>
        <mxCell id="VPEJ1JaMgokHMF3FO-Ii-61" value="RGS/ODS" style="rounded=0;whiteSpace=wrap;html=1;fontSize=14;align=center;" vertex="1" parent="VPEJ1JaMgokHMF3FO-Ii-60">
          <mxGeometry width="110" height="32" as="geometry"/>
        </mxCell>
        <mxCell id="VPEJ1JaMgokHMF3FO-Ii-62" value="PARIS" style="rounded=0;whiteSpace=wrap;html=1;fontSize=14;align=center;" vertex="1" parent="VPEJ1JaMgokHMF3FO-Ii-60">
          <mxGeometry y="32" width="110" height="32" as="geometry"/>
        </mxCell>
        <mxCell id="VPEJ1JaMgokHMF3FO-Ii-63" value="DynamoDB" style="rounded=0;whiteSpace=wrap;html=1;fontSize=14;align=center;" vertex="1" parent="VPEJ1JaMgokHMF3FO-Ii-60">
          <mxGeometry y="64" width="110" height="32" as="geometry"/>
        </mxCell>
        <mxCell id="VPEJ1JaMgokHMF3FO-Ii-64" value="..." style="rounded=0;whiteSpace=wrap;html=1;fontSize=14;align=center;" vertex="1" parent="VPEJ1JaMgokHMF3FO-Ii-60">
          <mxGeometry y="96" width="110" height="32" as="geometry"/>
        </mxCell>
        <mxCell id="VPEJ1JaMgokHMF3FO-Ii-65" value="&amp;lt;&amp;lt;Internal&amp;nbsp; data source services&amp;gt;&amp;gt;" style="text;html=1;align=center;verticalAlign=middle;resizable=0;points=[];;autosize=1;fontSize=14;" vertex="1" parent="VPEJ1JaMgokHMF3FO-Ii-59">
          <mxGeometry x="-50" width="230" height="20" as="geometry"/>
        </mxCell>
        <mxCell id="VPEJ1JaMgokHMF3FO-Ii-66" style="edgeStyle=orthogonalEdgeStyle;rounded=0;orthogonalLoop=1;jettySize=auto;html=1;entryX=0;entryY=0.5;entryDx=0;entryDy=0;startArrow=none;startFill=0;fontSize=14;endArrow=classic;endFill=1;" edge="1" parent="VPEJ1JaMgokHMF3FO-Ii-1" source="VPEJ1JaMgokHMF3FO-Ii-67" target="VPEJ1JaMgokHMF3FO-Ii-10">
          <mxGeometry relative="1" as="geometry"/>
        </mxCell>
        <mxCell id="VPEJ1JaMgokHMF3FO-Ii-67" value="OpsTools" style="rounded=0;whiteSpace=wrap;html=1;fontSize=14;" vertex="1" parent="VPEJ1JaMgokHMF3FO-Ii-1">
          <mxGeometry x="-960" y="569" width="110" height="40" as="geometry"/>
        </mxCell>
        <mxCell id="VPEJ1JaMgokHMF3FO-Ii-68" value="Herd SIL Activities" style="rounded=0;whiteSpace=wrap;html=1;fontSize=14;align=center;fontStyle=1" vertex="1" parent="VPEJ1JaMgokHMF3FO-Ii-1">
          <mxGeometry x="-320" y="559" width="389" height="60" as="geometry"/>
        </mxCell>
        <mxCell id="VPEJ1JaMgokHMF3FO-Ii-70" value="" style="group" vertex="1" connectable="0" parent="VPEJ1JaMgokHMF3FO-Ii-1">
          <mxGeometry x="-990" y="81" width="170" height="226" as="geometry"/>
        </mxCell>
        <mxCell id="VPEJ1JaMgokHMF3FO-Ii-71" value="&lt;b&gt;BusinessData&lt;/b&gt;" style="shape=cylinder;whiteSpace=wrap;html=1;boundedLbl=1;backgroundOutline=1;fontSize=14;align=center;verticalAlign=top;" vertex="1" parent="VPEJ1JaMgokHMF3FO-Ii-70">
          <mxGeometry x="20" width="130" height="226" as="geometry"/>
        </mxCell>
        <mxCell id="VPEJ1JaMgokHMF3FO-Ii-72" value="AggregatedData" style="shape=hexagon;perimeter=hexagonPerimeter2;whiteSpace=wrap;html=1;fontSize=14;" vertex="1" parent="VPEJ1JaMgokHMF3FO-Ii-70">
          <mxGeometry x="25" y="79" width="120" height="40" as="geometry"/>
        </mxCell>
        <mxCell id="VPEJ1JaMgokHMF3FO-Ii-73" value="Outbound&lt;br&gt;Document" style="shape=hexagon;perimeter=hexagonPerimeter2;whiteSpace=wrap;html=1;fontSize=14;" vertex="1" parent="VPEJ1JaMgokHMF3FO-Ii-70">
          <mxGeometry x="25" y="126" width="120" height="40" as="geometry"/>
        </mxCell>
        <mxCell id="VPEJ1JaMgokHMF3FO-Ii-74" value="Inbound&lt;br&gt;Document" style="shape=hexagon;perimeter=hexagonPerimeter2;whiteSpace=wrap;html=1;fontSize=14;" vertex="1" parent="VPEJ1JaMgokHMF3FO-Ii-70">
          <mxGeometry x="25" y="176" width="120" height="40" as="geometry"/>
        </mxCell>
        <mxCell id="VPEJ1JaMgokHMF3FO-Ii-75" value="Data Transformer" style="rounded=1;whiteSpace=wrap;html=1;fontSize=14;" vertex="1" parent="VPEJ1JaMgokHMF3FO-Ii-1">
          <mxGeometry x="-753" y="220" width="120" height="35" as="geometry"/>
        </mxCell>
        <mxCell id="VPEJ1JaMgokHMF3FO-Ii-76" value="FeedbackHandler" style="rounded=1;whiteSpace=wrap;html=1;fontSize=14;" vertex="1" parent="VPEJ1JaMgokHMF3FO-Ii-1">
          <mxGeometry x="-194" y="134" width="120" height="35" as="geometry"/>
        </mxCell>
        <mxCell id="VPEJ1JaMgokHMF3FO-Ii-10" value="Coral Activities" style="rounded=0;whiteSpace=wrap;html=1;fontSize=14;align=center;fontStyle=1" vertex="1" parent="VPEJ1JaMgokHMF3FO-Ii-1">
          <mxGeometry x="-754" y="559" width="404" height="60" as="geometry"/>
        </mxCell>
        <mxCell id="VPEJ1JaMgokHMF3FO-Ii-78" value="" style="rounded=0;whiteSpace=wrap;html=1;" vertex="1" parent="VPEJ1JaMgokHMF3FO-Ii-1">
          <mxGeometry x="-753" y="485" width="120" height="60" as="geometry"/>
        </mxCell>
      </root>
    </mxGraphModel>
  </diagram>
  <diagram id="ptsG1FJoM-qfQ0ppVf7S" name="Page-3">
    <mxGraphModel dx="972" dy="525" grid="1" gridSize="10" guides="1" tooltips="1" connect="1" arrows="1" fold="1" page="1" pageScale="1" pageWidth="1169" pageHeight="827" math="0" shadow="0">
      <root>
        <mxCell id="M529VwKAbtPdFLRNV8Z_-0"/>
        <mxCell id="M529VwKAbtPdFLRNV8Z_-1" parent="M529VwKAbtPdFLRNV8Z_-0"/>
        <mxCell id="M529VwKAbtPdFLRNV8Z_-5" value="" style="shape=flexArrow;endArrow=classic;html=1;" edge="1" parent="M529VwKAbtPdFLRNV8Z_-1">
          <mxGeometry width="50" height="50" relative="1" as="geometry">
            <mxPoint x="400" y="230" as="sourcePoint"/>
            <mxPoint x="610" y="230" as="targetPoint"/>
          </mxGeometry>
        </mxCell>
        <mxCell id="M529VwKAbtPdFLRNV8Z_-6" value="" style="endArrow=classic;html=1;" edge="1" parent="M529VwKAbtPdFLRNV8Z_-1">
          <mxGeometry width="50" height="50" relative="1" as="geometry">
            <mxPoint x="420" y="160" as="sourcePoint"/>
            <mxPoint x="420" y="330" as="targetPoint"/>
          </mxGeometry>
        </mxCell>
        <mxCell id="M529VwKAbtPdFLRNV8Z_-7" value="" style="endArrow=classic;html=1;" edge="1" parent="M529VwKAbtPdFLRNV8Z_-1">
          <mxGeometry width="50" height="50" relative="1" as="geometry">
            <mxPoint x="440" y="160" as="sourcePoint"/>
            <mxPoint x="440" y="330" as="targetPoint"/>
          </mxGeometry>
        </mxCell>
        <mxCell id="M529VwKAbtPdFLRNV8Z_-8" value="" style="endArrow=classic;html=1;" edge="1" parent="M529VwKAbtPdFLRNV8Z_-1">
          <mxGeometry width="50" height="50" relative="1" as="geometry">
            <mxPoint x="460" y="160" as="sourcePoint"/>
            <mxPoint x="460" y="330" as="targetPoint"/>
          </mxGeometry>
        </mxCell>
        <mxCell id="M529VwKAbtPdFLRNV8Z_-9" value="" style="endArrow=classic;html=1;" edge="1" parent="M529VwKAbtPdFLRNV8Z_-1">
          <mxGeometry width="50" height="50" relative="1" as="geometry">
            <mxPoint x="480" y="160" as="sourcePoint"/>
            <mxPoint x="480" y="330" as="targetPoint"/>
          </mxGeometry>
        </mxCell>
        <mxCell id="M529VwKAbtPdFLRNV8Z_-10" value="" style="endArrow=classic;html=1;" edge="1" parent="M529VwKAbtPdFLRNV8Z_-1">
          <mxGeometry width="50" height="50" relative="1" as="geometry">
            <mxPoint x="500" y="160" as="sourcePoint"/>
            <mxPoint x="500" y="330" as="targetPoint"/>
          </mxGeometry>
        </mxCell>
        <mxCell id="M529VwKAbtPdFLRNV8Z_-16" value="" style="endArrow=classic;html=1;" edge="1" parent="M529VwKAbtPdFLRNV8Z_-1">
          <mxGeometry width="50" height="50" relative="1" as="geometry">
            <mxPoint x="500" y="160" as="sourcePoint"/>
            <mxPoint x="500" y="330" as="targetPoint"/>
          </mxGeometry>
        </mxCell>
        <mxCell id="M529VwKAbtPdFLRNV8Z_-17" value="" style="endArrow=classic;html=1;" edge="1" parent="M529VwKAbtPdFLRNV8Z_-1">
          <mxGeometry width="50" height="50" relative="1" as="geometry">
            <mxPoint x="520" y="160" as="sourcePoint"/>
            <mxPoint x="520" y="330" as="targetPoint"/>
          </mxGeometry>
        </mxCell>
        <mxCell id="M529VwKAbtPdFLRNV8Z_-18" value="" style="endArrow=classic;html=1;" edge="1" parent="M529VwKAbtPdFLRNV8Z_-1">
          <mxGeometry width="50" height="50" relative="1" as="geometry">
            <mxPoint x="540" y="160" as="sourcePoint"/>
            <mxPoint x="540" y="330" as="targetPoint"/>
          </mxGeometry>
        </mxCell>
        <mxCell id="M529VwKAbtPdFLRNV8Z_-19" value="" style="endArrow=classic;html=1;" edge="1" parent="M529VwKAbtPdFLRNV8Z_-1">
          <mxGeometry width="50" height="50" relative="1" as="geometry">
            <mxPoint x="560" y="160" as="sourcePoint"/>
            <mxPoint x="560" y="330" as="targetPoint"/>
          </mxGeometry>
        </mxCell>
        <mxCell id="M529VwKAbtPdFLRNV8Z_-20" value="" style="endArrow=classic;html=1;" edge="1" parent="M529VwKAbtPdFLRNV8Z_-1">
          <mxGeometry width="50" height="50" relative="1" as="geometry">
            <mxPoint x="580" y="160" as="sourcePoint"/>
            <mxPoint x="580" y="330" as="targetPoint"/>
          </mxGeometry>
        </mxCell>
        <mxCell id="M529VwKAbtPdFLRNV8Z_-21" value="" style="shape=flexArrow;endArrow=classic;html=1;" edge="1" parent="M529VwKAbtPdFLRNV8Z_-1">
          <mxGeometry width="50" height="50" relative="1" as="geometry">
            <mxPoint x="400" y="300" as="sourcePoint"/>
            <mxPoint x="610" y="300" as="targetPoint"/>
          </mxGeometry>
        </mxCell>
        <mxCell id="M529VwKAbtPdFLRNV8Z_-22" value="Batch upload" style="text;html=1;strokeColor=none;fillColor=none;align=center;verticalAlign=middle;whiteSpace=wrap;rounded=0;" vertex="1" parent="M529VwKAbtPdFLRNV8Z_-1">
          <mxGeometry x="290" y="220" width="40" height="20" as="geometry"/>
        </mxCell>
        <mxCell id="M529VwKAbtPdFLRNV8Z_-23" value="Batch Feedback Consume" style="text;html=1;strokeColor=none;fillColor=none;align=center;verticalAlign=middle;whiteSpace=wrap;rounded=0;" vertex="1" parent="M529VwKAbtPdFLRNV8Z_-1">
          <mxGeometry x="265" y="290" width="90" height="20" as="geometry"/>
        </mxCell>
        <mxCell id="M529VwKAbtPdFLRNV8Z_-24" value="Unit request" style="text;html=1;strokeColor=none;fillColor=none;align=center;verticalAlign=middle;whiteSpace=wrap;rounded=0;" vertex="1" parent="M529VwKAbtPdFLRNV8Z_-1">
          <mxGeometry x="400" y="120" width="40" height="20" as="geometry"/>
        </mxCell>
      </root>
    </mxGraphModel>
  </diagram>
</mxfile>
